<?xml version="1.0" standalone="no"?>
<!DOCTYPE svg PUBLIC "-//W3C//DTD SVG 20010904//EN"
 "http://www.w3.org/TR/2001/REC-SVG-20010904/DTD/svg10.dtd">
<svg version="1.0" xmlns="http://www.w3.org/2000/svg"
 width="700.000000pt" height="700.000000pt" viewBox="0 0 700.000000 700.000000"
 preserveAspectRatio="xMidYMid meet">
<metadata>
Created by potrace 1.14, written by Peter Selinger 2001-2017
</metadata>
<g transform="translate(0.000000,700.000000) scale(0.100000,-0.100000)"
fill="#000000" stroke="none">
<path d="M3560 6303 c-95 -25 -114 -29 -149 -37 -10 -2 -49 -13 -87 -25 -38
-11 -190 -52 -339 -91 -459 -122 -455 -121 -650 -173 -200 -54 -259 -70 -700
-188 -225 -60 -442 -118 -480 -129 -39 -11 -79 -22 -90 -24 -11 -2 -95 -25
-186 -50 -156 -42 -229 -73 -289 -122 -49 -41 -110 -137 -132 -207 l-21 -71 0
-1691 c0 -1311 3 -1700 13 -1735 31 -112 110 -215 210 -274 57 -34 109 -48
1310 -367 184 -49 358 -95 385 -103 28 -8 190 -51 360 -96 171 -45 436 -116
590 -157 154 -41 298 -80 320 -85 79 -19 146 -12 320 35 94 25 316 85 495 132
179 47 417 111 530 142 113 30 213 56 222 58 9 2 51 13 93 25 42 12 84 23 93
25 9 2 91 24 182 48 91 24 235 63 320 85 706 186 827 220 875 244 101 51 186
151 225 262 19 57 20 88 20 1755 0 1824 2 1740 -51 1846 -32 65 -113 144 -184
181 -49 26 -466 148 -576 169 -12 3 -36 9 -53 14 -17 6 -143 40 -281 77 -137
36 -272 72 -300 79 -27 8 -126 35 -220 60 -93 25 -237 64 -320 85 -82 22 -184
49 -225 60 -41 12 -127 34 -190 51 -63 16 -146 38 -185 49 -623 175 -690 186
-855 143z m770 -459 c74 -20 158 -42 185 -49 28 -8 154 -41 280 -75 127 -34
273 -73 325 -87 52 -14 100 -26 105 -28 13 -3 33 -8 255 -67 102 -27 219 -58
260 -69 41 -11 117 -31 168 -45 51 -14 100 -27 110 -29 101 -23 522 -140 522
-145 0 -4 -30 -15 -67 -25 -38 -9 -75 -19 -83 -21 -8 -2 -31 -8 -50 -13 -565
-151 -649 -172 -677 -165 -15 4 -145 38 -288 76 -143 38 -303 81 -355 94 -52
14 -273 73 -490 131 -217 58 -411 109 -430 114 -19 4 -75 19 -125 32 -49 14
-135 37 -190 52 -55 15 -134 36 -175 47 -41 11 -97 26 -125 33 -54 14 -225 59
-400 107 -60 16 -138 36 -172 45 -35 9 -62 17 -60 19 1 1 387 104 447 119 8 2
107 28 219 58 l204 53 236 -63 c130 -35 297 -79 371 -99z m-2216 -339 c72 -20
192 -51 266 -71 74 -19 155 -41 180 -48 25 -8 101 -28 170 -46 69 -18 208 -55
310 -82 102 -27 241 -64 310 -82 69 -19 289 -77 490 -131 366 -98 477 -127
775 -205 148 -39 205 -58 180 -60 -17 -2 -35 -7 -285 -74 -255 -69 -551 -149
-704 -189 l-88 -23 -177 47 c-97 25 -255 68 -351 93 -96 26 -182 49 -190 51
-8 2 -107 28 -220 58 -234 63 -398 107 -420 113 -8 2 -51 13 -95 25 -44 11
-87 22 -95 24 -13 3 -419 111 -955 255 -82 22 -190 51 -239 63 -49 13 -85 26
-80 29 8 5 244 71 295 83 27 6 546 145 654 175 55 16 108 29 119 29 10 1 77
-15 150 -34z m-1084 -734 c300 -80 757 -203 1540 -413 63 -16 153 -41 200 -54
47 -12 195 -52 330 -88 135 -36 280 -76 323 -87 l77 -22 0 -1473 c0 -811 -3
-1474 -7 -1474 -5 0 -82 20 -173 44 -91 24 -237 62 -325 85 -266 70 -1026 271
-1082 287 -29 8 -77 20 -105 28 -29 8 -159 42 -288 76 -129 34 -264 69 -300
79 -36 11 -121 33 -190 51 -69 18 -132 36 -140 40 -13 7 -15 181 -14 1482 1
810 2 1474 3 1476 2 3 -7 5 151 -37z m5531 27 c4 -61 1 -2939 -3 -2944 -6 -5
-284 -82 -541 -149 -73 -18 -181 -47 -242 -63 -60 -16 -182 -48 -270 -71 -88
-23 -250 -66 -360 -96 -768 -205 -1197 -317 -1202 -311 -7 7 -8 2935 -1 2942
3 3 138 41 299 85 162 45 355 98 429 118 74 21 136 37 138 36 2 -2 3 -239 3
-529 0 -289 4 -527 7 -530 8 -4 843 217 860 228 8 4 11 170 11 509 0 276 0
515 0 530 1 15 7 29 14 32 15 5 654 173 682 180 11 2 52 13 90 24 87 24 85 24
86 9z"/>
</g>
</svg>
